<?xml version="1.0" encoding="utf-8"?>
<!DOCTYPE svg PUBLIC "-//W3C//DTD SVG 1.0//EN" "http://www.w3.org/TR/2001/REC-SVG-20010904/DTD/svg10.dtd">
<svg version="1.0" xmlns="http://www.w3.org/2000/svg" width="1138px" height="750px" viewBox="0 0 1138 750" preserveAspectRatio="xMidYMid meet">
 <g fill="#feba17">
  <path d="M373 735 c-51.4 -2.8 -96.4 -8.9 -136.2 -18.5 -24.3 -5.9 -26.8 -6.6 -30.3 -8.1 -3.1 -1.3 -14.2 -4.7 -16 -4.9 -0.5 -0.1 -3.2 -1.1 -5.8 -2.3 -2.7 -1.2 -5.1 -2.2 -5.4 -2.2 -0.3 0 -1.9 -0.6 -3.6 -1.4 -1.8 -0.7 -5.7 -2.4 -8.7 -3.6 -3 -1.2 -11.9 -5.5 -19.8 -9.5 -8.7 -4.5 -14.9 -7.2 -15.9 -6.8 -1.2 0.5 -1.5 0.2 -1 -1 0.6 -1.7 -0.3 -2.1 -3.2 -1.8 -0.7 0.2 -1 -0.2 -0.7 -0.7 0.3 -0.5 -3.1 -3.3 -7.6 -6.2 -4.4 -2.9 -11.6 -8.1 -16 -11.6 -4.3 -3.5 -7.8 -6.2 -7.8 -5.9 0 0.8 -16.4 -16 -22.5 -23 -3.3 -3.9 -6.3 -7.1 -6.7 -7.3 -0.5 -0.2 -0.8 -1 -0.8 -1.7 0 -0.8 -0.8 -2 -1.9 -2.7 -1 -0.7 -2 -1.7 -2.2 -2.3 -0.2 -0.5 -0.8 -0.9 -1.2 -0.7 -0.5 0.1 -0.7 -0.3 -0.5 -1 0.3 -0.7 -1.5 -4.2 -3.8 -7.9 -14 -21.6 -23.5 -49 -27.8 -80.4 -2.3 -16.8 -1.9 -55.5 0.9 -74 1.2 -8 3.6 -20.1 5.5 -28.1 1.2 -4.9 2.3 -9.6 2.5 -10.4 0.9 -4 7.9 -22.9 11.5 -30.9 2.2 -5 3.7 -9.8 3.4 -10.6 -0.4 -1 -0.2 -1.5 0.6 -1.3 0.8 0.2 1.8 -1.1 2.3 -2.9 0.5 -1.8 1.4 -3.3 1.8 -3.3 0.5 0 0.9 -0.7 0.9 -1.5 0 -0.8 0.3 -1.5 0.8 -1.5 0.4 0 1.8 -2.4 3.2 -5.2 1.3 -2.9 3.9 -7.3 5.6 -9.8 7.4 -10.7 7.9 -12.8 1.6 -7 -1.8 1.6 -3.6 3 -4 3.1 -1.2 0.3 -9.7 6.2 -10 7.1 -0.2 0.4 -0.9 0.8 -1.5 0.8 -0.7 0 -2.4 1 -3.7 2.3 -1.4 1.2 -3.2 2.3 -4 2.5 -0.8 0.2 -1.9 0.9 -2.5 1.6 -0.5 0.7 -1.4 1.5 -2 1.7 -0.5 0.2 -0.9 0.8 -0.7 1.3 0.2 0.5 -0.4 0.6 -1.3 0.2 -0.9 -0.3 -2.6 0.1 -3.8 0.8 -3.6 2.4 -12.9 5.7 -16.1 5.8 -1.9 0.1 -3.6 -0.7 -4.7 -2 -1.6 -2.1 -1.6 -2.4 0.2 -7.5 1.6 -4.5 11 -19.5 14.3 -23 4.4 -4.6 7.4 -9.2 6.8 -10.5 -0.4 -1.1 -0.1 -1.4 1 -0.9 1.7 0.6 6.3 -3.5 5.1 -4.6 -0.3 -0.4 -0.1 -0.7 0.6 -0.7 0.7 0 1 -0.4 0.7 -0.8 -0.2 -0.4 -0.1 -1.4 0.5 -2.2 0.7 -1.3 0.9 -1.3 0.9 -0.1 0 1 1 0.5 3 -1.4 1.6 -1.5 2.7 -3.2 2.4 -3.7 -0.3 -0.4 0.1 -0.8 0.8 -0.8 1.6 0 8.7 -7 7.2 -7.1 -0.5 0 -0.2 -0.3 0.7 -0.7 0.9 -0.4 5.6 -4.3 10.4 -8.7 10.7 -9.8 12 -10.9 16.9 -14.8 2.1 -1.8 5.5 -4.5 7.5 -6.2 2 -1.6 3.8 -3.4 3.9 -4 0.1 -0.5 0.8 -1 1.5 -1 0.6 0 1.2 -0.7 1.2 -1.5 0 -0.8 0.7 -1.4 1.5 -1.3 0.8 0.2 3.8 -1.9 6.6 -4.5 2.7 -2.6 5.4 -4.8 6 -4.9 0.5 -0.2 0.9 -0.9 0.9 -1.5 0 -0.7 0.7 -1.3 1.5 -1.3 2.1 0 9.9 -5.7 10 -7.3 0 -0.7 0.4 -1.1 0.8 -0.8 0.5 0.3 1.9 -0.5 3.3 -1.7 1.3 -1.3 9.8 -7.9 18.9 -14.7 9.1 -6.8 16.7 -12.7 17 -13 0.3 -0.3 2.4 -1.8 4.8 -3.4 2.3 -1.6 4.2 -3.3 4.2 -3.8 0 -0.5 0.4 -0.7 0.9 -0.3 0.5 0.3 1.2 0.1 1.5 -0.4 0.4 -0.5 7.5 -5.8 15.9 -11.7 8.3 -5.9 16 -11.6 17 -12.6 1 -1 2.3 -1.8 2.9 -1.8 0.6 0 2.9 -1.5 5.2 -3.3 2.3 -1.9 4.6 -3.6 5.1 -3.8 0.6 -0.2 6.9 -4.2 14 -8.9 7.2 -4.7 14.7 -9.6 16.8 -10.9 2 -1.2 3.7 -2.7 3.7 -3.2 0 -0.6 0.4 -0.8 0.9 -0.4 0.6 0.3 1.4 -0.3 2 -1.2 0.6 -1 1.1 -1.4 1.1 -1 0 0.7 5.5 -2.6 7 -4.3 0.3 -0.3 1.1 -0.6 1.8 -0.8 0.8 -0.1 2.6 -1.1 4 -2.1 6.3 -4.2 19.4 -12.1 20.3 -12.1 0.5 0 0.9 -0.4 0.9 -1 0 -0.5 0.4 -1 0.8 -1 0.8 0 10.1 -5.1 30.7 -16.8 4.3 -2.4 8.5 -5.1 9.3 -5.8 0.7 -0.8 2 -1.4 2.8 -1.4 1.7 0 10.5 -4.8 11.5 -6.3 0.3 -0.5 0.9 -0.8 1.3 -0.7 1.3 0.4 6.6 -2.2 6.6 -3.2 0 -0.5 0.4 -0.7 0.9 -0.4 0.5 0.3 2 -0.4 3.5 -1.5 1.4 -1.1 2.6 -1.8 2.6 -1.6 0 0.7 46.8 -21.1 48 -22.3 0.3 -0.3 1.2 -0.6 2 -0.7 1.2 -0.2 20.9 -7.8 31.5 -12.2 13.3 -5.6 50.6 -16.8 72 -21.6 18.3 -4.2 28.7 -6.4 32 -6.9 1.7 -0.2 12.5 -1.8 24 -3.5 34.7 -5.1 59.4 -6.8 98.5 -6.8 19 0 38.1 0.3 42.5 0.8 4.4 0.4 12.3 1.1 17.5 1.4 5.2 0.3 10.9 0.8 12.5 1 1.7 0.3 11.3 1.6 21.5 3 17.6 2.5 47.2 8.2 64.5 12.6 17 4.3 51.1 15.3 62 19.9 3.1 1.3 6.9 2.4 7.8 2.2 0.4 -0.1 0.7 0.2 0.7 0.7 0 0.4 2.1 1.6 4.8 2.6 2.6 1 8 3.4 11.9 5.2 4 1.9 7.7 3.2 8.2 2.8 0.5 -0.3 1.3 0.1 1.8 0.8 0.4 0.8 5.8 4 11.8 7.2 13 6.9 34 19.3 41 24.3 2.8 2 5.8 3.5 6.8 3.4 1.1 0 1.7 0.4 1.4 1.2 -0.3 0.6 1.2 2.3 3.2 3.6 2 1.4 3.8 2.7 4.1 3 2.8 3.2 16.8 13.6 17.8 13.2 0.8 -0.2 1.2 0.2 1 1.1 -0.4 2.1 13.1 15.7 14.9 15 0.9 -0.4 1.3 0 1.1 0.8 -0.3 1.4 9.5 14.1 15.8 20.6 1.7 1.8 2.9 3.5 2.6 3.8 -0.3 0.3 0 0.5 0.6 0.5 0.7 0 1.2 0.6 1.2 1.3 0 0.7 1.3 2.7 2.9 4.5 1.7 1.7 2.7 3.2 2.5 3.2 -0.3 0 0.8 1.8 2.5 3.9 1.7 2.1 3.1 4.2 3.1 4.5 0 0.9 5.3 8.9 6.3 9.7 0.5 0.3 0.8 1 0.8 1.5 -0.1 0.5 0.6 1.7 1.4 2.6 0.8 1 1.3 1.8 1 1.8 -0.2 0 0.9 2.4 2.6 5.2 1.6 2.9 3.5 6.5 4 8.1 0.6 1.5 1.5 2.7 2.1 2.7 0.5 0 0.6 0.5 0.3 1 -0.3 0.6 -0.1 1 0.5 1 0.6 0 0.8 0.5 0.5 1 -0.3 0.6 -0.2 1 0.3 1 0.5 0 0.9 0.6 0.9 1.3 0 0.6 1 3.3 2.1 5.9 1.2 2.6 2.2 4.9 2.2 5.3 0 0.3 0.8 2.4 1.9 4.8 1 2.3 3.1 8 4.6 12.7 1.5 4.7 3.2 9.6 3.8 11 0.6 1.4 1.1 3 1.3 3.7 0.1 0.7 1.6 6.7 3.3 13.5 3.7 14.8 7.8 40 8.5 52.3 0.3 5 0.8 13.5 1.1 19 0.5 8.4 -0.6 36 -2 48.5 -1.3 12.2 -6 36.9 -9 47.5 -7.9 27.4 -12.2 38.6 -22.1 58.8 -2.4 4.9 -4.4 9.5 -4.4 10.2 0 0.7 -0.3 1.5 -0.8 1.7 -0.9 0.4 -11.2 17.7 -11.2 18.9 0 0.5 -0.4 0.9 -1 0.9 -0.5 0 -1 0.6 -1 1.4 0 0.8 -0.4 1.6 -0.8 1.8 -0.9 0.3 -7.9 10.3 -7.2 10.3 0.2 0 -0.8 1.3 -2.3 2.9 -1.4 1.5 -2.5 3.1 -2.4 3.5 0.1 0.3 -1.4 2.2 -3.3 4.2 -4.8 4.8 -10.5 12 -10.5 13 0 0.5 -0.3 0.9 -0.7 0.9 -1.6 0.1 -10.3 10.3 -10 11.8 0.2 1 -0.2 1.3 -1.2 0.9 -0.9 -0.4 -2.9 1 -5.5 3.8 -2.3 2.5 -4.1 4.2 -4.1 3.9 0 -0.3 -1.5 0.9 -3.2 2.6 -1.8 1.7 -7 6.1 -11.4 9.8 -4.5 3.7 -8 7 -7.7 7.5 0.2 0.4 -0.1 0.7 -0.8 0.7 -0.6 0 -5 2.9 -9.8 6.4 -4.7 3.5 -10.3 7.4 -12.4 8.6 -2.1 1.2 -4.2 3.1 -4.8 4.1 -0.5 1 -1.3 1.8 -1.7 1.6 -1 -0.3 -12.2 6.5 -12.2 7.5 0 0.4 -0.6 0.8 -1.4 0.8 -1.7 0 -15.8 7.9 -16.8 9.4 -0.4 0.6 -0.8 0.8 -0.8 0.3 0 -0.9 -24.2 11.2 -25.2 12.6 -0.3 0.6 -1.8 1.1 -3.3 1.3 -1.4 0.2 -5.6 1.7 -9.2 3.3 -3.6 1.7 -7.1 3.1 -7.8 3.1 -0.8 0 -2.1 0.7 -2.9 1.6 -0.9 0.8 -1.6 1.3 -1.6 1 0 -0.3 -3 0.6 -6.7 2 -3.8 1.4 -10.2 3.7 -14.3 5 -4.1 1.3 -8.2 2.7 -9 3.1 -0.8 0.3 -1.9 0.7 -2.5 0.8 -2.9 0.7 -16.1 4.8 -17 5.3 -0.5 0.3 -1.8 0.7 -3 0.8 -2.5 0.3 -26.4 6.2 -28.5 7.1 -0.8 0.3 -1.8 0.6 -2.2 0.5 -0.4 -0.1 -4.9 0.7 -10 1.9 -5.1 1.1 -12.9 2.6 -17.3 3.4 -4.4 0.8 -14.1 2.6 -21.5 4 -7.4 1.3 -15.1 2.7 -17 3 -1.9 0.3 -9.1 1.5 -16 2.6 -31.3 5 -78.4 11.6 -96.5 13.5 -2.2 0.2 -5.6 0.7 -7.5 0.9 -1.9 0.3 -6.4 0.8 -10 1.1 -3.6 0.3 -7.6 0.8 -9 1.1 -1.4 0.3 -2.9 0.5 -3.5 0.4 -0.9 -0.2 -30.5 2.3 -41 3.5 -2.7 0.3 -5.7 0.6 -6.5 0.6 -0.8 0 -11.4 0.6 -23.5 1.5 -25.7 1.7 -122 2.6 -145.5 1.3z m134 -38.9 c36 -2.4 58.9 -4.3 90 -7.6 7.8 -0.8 38.2 -4.5 46 -5.5 4.1 -0.6 9.5 -1.3 12 -1.6 2.5 -0.3 6.8 -0.9 9.5 -1.4 2.8 -0.5 12.2 -1.9 21 -3.1 8.8 -1.3 16.1 -2.6 16.3 -3 0.2 -0.5 0.9 -0.6 1.6 -0.3 0.7 0.3 8 -0.7 16.2 -2.1 8.2 -1.5 17.6 -3.1 20.9 -3.6 3.3 -0.5 9.4 -1.7 13.5 -2.5 4.1 -0.9 8.9 -1.8 10.5 -2.1 23.2 -3.8 73.5 -16.6 77.4 -19.7 0.8 -0.6 1.6 -1 1.8 -0.8 0.9 0.7 3.3 0 4.7 -1.3 0.8 -0.9 1.9 -1.4 2.3 -1.3 1.6 0.4 7.3 -1.4 7.3 -2.3 0 -0.6 0.4 -0.8 0.9 -0.5 0.5 0.3 3.1 -0.4 5.7 -1.6 2.7 -1.2 5.1 -2.2 5.4 -2.3 1.7 -0.1 15.6 -6.1 16.2 -7 0.4 -0.5 0.8 -0.6 0.8 -0.2 0 2 48.6 -24.4 53.8 -29.3 1.2 -1.1 2.2 -1.8 2.2 -1.5 0 0.3 0.6 0.1 1.3 -0.5 1.2 -1 5.8 -4.2 16.2 -11.4 2.8 -1.9 7 -5.3 9.3 -7.4 2.3 -2.1 4.4 -3.7 4.6 -3.5 0.2 0.2 1.9 -1.4 3.8 -3.7 1.9 -2.2 4 -4 4.7 -4 0.7 0 0.9 -0.4 0.6 -1 -0.3 -0.5 0.1 -1 0.9 -1 0.9 0 1.5 -0.5 1.3 -1.2 -0.1 -0.7 0.3 -1.2 1 -1.3 1.5 0 15.9 -14.5 15.6 -15.7 -0.2 -0.4 0.3 -0.8 1 -0.8 0.7 0 1.9 -0.8 2.7 -1.7 7.4 -8.7 16 -19.9 19.2 -24.8 2.1 -3.3 4.1 -6.5 4.6 -7 2.5 -3.1 8.2 -12.8 8.2 -14 0 -0.8 0.4 -1.5 0.9 -1.5 0.8 0 3.2 -4.7 3.4 -6.7 0 -0.4 0.9 -1.7 1.9 -2.7 1.6 -1.8 2.3 -3.7 1.9 -5.8 0 -0.5 0.3 -0.8 0.8 -0.8 0.8 0 1.6 -1.7 8.1 -17.5 4.2 -10.3 11.2 -32.8 12.8 -41 0.6 -2.7 1.7 -8.6 2.6 -13 5.9 -30.3 6.3 -68.4 1.1 -101.3 -2.6 -16 -9.8 -43.1 -14.4 -53.7 -0.5 -1.1 -1.4 -3.6 -2.1 -5.5 -2.9 -8.6 -13.8 -31 -15 -31 -0.6 0 -1 -0.8 -1 -1.7 0 -2.3 -3.4 -7.5 -4.3 -6.6 -0.4 0.3 -0.7 -0.3 -0.7 -1.5 0 -1.2 -0.4 -2.2 -1 -2.2 -0.5 0 -1 -0.7 -1 -1.5 0 -0.8 -0.5 -1.5 -1.2 -1.5 -0.6 0 -0.8 -0.3 -0.5 -0.7 0.4 -0.3 0 -1.4 -0.9 -2.4 -0.9 -1 -2.3 -3.1 -3.2 -4.7 -2.3 -4.1 -5.2 -8 -8.3 -11.4 -1.5 -1.5 -2.5 -2.9 -2.3 -3.1 0.2 -0.2 -2.5 -3.4 -6 -7 -3.5 -3.7 -6.1 -6.7 -5.9 -6.7 0.2 0 -2.2 -2.5 -5.4 -5.5 -3.2 -3 -7.8 -7.5 -10.3 -10 -2.5 -2.5 -5.2 -4.5 -6 -4.5 -0.7 0 -1.1 -0.3 -0.7 -0.6 0.6 -0.7 -4.5 -5.4 -5.9 -5.4 -0.5 0 -2.2 -1.4 -3.7 -3 -3.8 -3.7 -10 -8.1 -12.4 -8.5 -1 -0.1 -1.7 -0.7 -1.6 -1.2 0.2 -1 -17.9 -12.4 -20.2 -12.7 -0.8 -0.1 -2.2 -0.9 -3.2 -1.8 -2.6 -2.2 -23.3 -13 -23.3 -12.1 0 0.5 -0.4 0.3 -0.8 -0.2 -0.8 -1.2 -20.1 -9.8 -21.9 -9.8 -0.7 0 -1.3 -0.3 -1.3 -0.7 0 -0.5 -11.8 -5.2 -14 -5.5 -0.3 -0.1 -2.1 -0.8 -4.1 -1.7 -3.9 -1.7 -31.1 -10.5 -34.4 -11.1 -1.1 -0.2 -2.7 -0.7 -3.5 -1 -3.2 -1.2 -26.1 -6.7 -38 -9.1 -11.1 -2.2 -45.1 -7.4 -49 -7.4 -0.8 0 -4.9 -0.5 -9.1 -1.1 -15.6 -2.1 -48.6 -3.4 -73.9 -2.8 -24 0.6 -49.7 2.2 -53 3.4 -0.8 0.3 -4.6 0.7 -8.5 0.9 -3.8 0.3 -11 1.2 -16 2 -4.9 0.8 -12.1 1.9 -15.9 2.4 -7.9 1.1 -37.5 7.3 -45.6 9.5 -3 0.8 -6.6 1.8 -8 2.1 -7 1.5 -31.5 8.7 -35 10.4 -0.8 0.4 -4.6 1.7 -8.5 2.9 -10.1 3.2 -32.9 12.4 -33.7 13.6 -0.4 0.5 -0.8 0.7 -0.8 0.3 0 -1 -10.9 3.8 -13 5.7 -0.9 0.8 -1.9 1.2 -2.2 0.9 -0.8 -0.8 -18.8 7.7 -18.8 8.8 0 0.5 -0.4 0.7 -0.9 0.3 -0.5 -0.3 -1.5 0 -2.3 0.7 -0.7 0.7 -2 1.4 -2.8 1.6 -2.6 0.5 -12.4 5.3 -14.2 6.9 -1 0.9 -1.8 1.3 -1.8 0.9 0 -0.3 -2.6 0.8 -5.7 2.5 -3.2 1.7 -10.5 5.6 -16.3 8.6 -5.8 3 -10.9 5.9 -11.5 6.6 -0.5 0.7 -1.8 1.3 -2.8 1.5 -1.7 0.3 -9.7 4.9 -34.9 19.9 -6.2 3.7 -14.3 8.3 -17.9 10.3 -14.7 7.8 -16.5 8.9 -18.3 10.9 -1.1 1.2 -2.3 2.1 -2.9 2.1 -1.7 0 -11.1 7.4 -9.9 7.8 0.6 0.2 3.1 -1 5.4 -2.6 2.4 -1.7 6.8 -3.6 9.8 -4.3 3 -0.7 5.7 -1.6 6 -1.9 0.3 -0.3 1.4 -0.6 2.5 -0.7 1.1 -0.1 4.7 -0.7 8 -1.3 10.4 -1.7 15.8 -2.3 24.1 -2.4 6.8 -0.1 8.6 0.2 10.3 1.8 1.2 1.1 2.1 2.5 2.1 3.2 0 1.7 -12.9 14.4 -14.6 14.4 -0.8 0 -1.4 0.4 -1.4 0.9 0 0.5 -0.8 1.2 -1.7 1.5 -2.4 0.8 -5.9 2.9 -8 4.8 -1 0.8 -3.9 2.5 -6.5 3.7 -2.7 1.3 -4.8 2.6 -4.8 3 0 0.4 -2.6 1.5 -5.7 2.6 -6.9 2.3 -12.8 5.8 -14.2 8.3 -0.5 1 -4.6 3.6 -9 5.7 -4.5 2.2 -8.1 4.3 -8.1 4.8 0 0.4 -0.4 0.5 -1 0.2 -0.5 -0.3 -1 -0.1 -1 0.5 0 0.6 -0.4 0.9 -0.8 0.6 -0.5 -0.3 -1.9 0.4 -3 1.5 -1.2 1.1 -2.2 1.7 -2.2 1.4 0 -0.4 -2.4 0.7 -5.2 2.3 -2.9 1.7 -6.9 3.9 -8.8 5 -9 5 -14.7 8.6 -16.7 10.5 -1.3 1.1 -2.3 1.7 -2.3 1.3 0 -0.8 -13.9 8.5 -16.3 10.9 -0.9 0.9 -2 1.6 -2.4 1.6 -0.4 0 -1.8 0.9 -3 1.9 -1.3 1.1 -2.3 1.7 -2.3 1.3 0 -0.4 -0.9 0.3 -2 1.5 -1.2 1.2 -2.5 2.2 -3 2.2 -0.8 0 -4 2.5 -19 14.5 -1.4 1.1 -3.9 3.5 -5.7 5.3 -1.8 1.8 -3.3 3 -3.3 2.6 0 -0.8 -30.5 29.5 -30.5 30.4 0 0.4 -1.4 2.1 -3 3.9 -1.7 1.7 -4.6 5.2 -6.5 7.7 -1.9 2.6 -4.7 6.1 -6.1 7.9 -4.2 5.3 -9 12.7 -8.3 12.7 0.4 0 -0.4 1.2 -1.8 2.8 -1.4 1.5 -3.3 4.1 -4.1 5.7 -2.7 5.1 -5.6 11.5 -5.6 12.2 0 0.3 -0.4 0.9 -0.9 1.2 -1.4 0.9 -8.3 16.3 -7.9 17.5 0.2 0.6 -0.4 2.2 -1.4 3.5 -1 1.3 -1.6 2.8 -1.3 3.3 0.4 0.6 0.2 1.3 -0.3 1.7 -2.5 1.6 -8.5 24.5 -11.3 43.1 -2.7 17.7 -3.9 49.8 -1.9 51.1 0.9 0.5 1 0.9 0.2 0.9 -0.7 0 -1 1.3 -0.7 3.8 1.3 12.4 1.7 15.4 3 21.7 2.9 14.3 9.6 34.2 12.2 36.3 0.9 0.6 1.2 1.2 0.8 1.2 -0.4 0 -0.4 0.6 0.1 1.3 0.4 0.6 0.8 1.4 0.9 1.7 0.3 1.8 2 4.8 3.5 6.5 1 1.1 1.7 2.2 1.6 2.5 -0.4 1 8.4 14.3 9 13.7 0.9 -0.9 4.1 3.6 3.6 5 -0.3 0.7 0.2 1.6 1.1 1.9 0.9 0.3 1.6 1.1 1.6 1.6 0 2.7 28.8 28.8 31.8 28.8 0.6 0 1.2 0.4 1.4 0.9 1.2 3.1 45 27.3 51.3 28.3 1.1 0.2 2.2 0.5 2.5 0.8 0.6 0.6 14.3 6.1 16.3 6.4 0.6 0.2 7.1 2.1 14.2 4.4 19.2 6.1 21.9 6.8 51 12.7 15.4 3.1 39.5 6.7 53 8 3.3 0.3 7.8 0.7 10 1 2.2 0.2 5.8 0.7 8 0.9 2.2 0.3 12.1 0.9 22 1.5 9.9 0.6 20.5 1.3 23.5 1.5 10.7 0.7 104.7 -0.3 120 -1.3z"/>
 </g>
</svg>